# xmcd
#
# Track frame offsets: 
#        150
#        18257
#        31871
#        50692
#        64191
#        85307
#        102373
#        119634
#        133819
#        149579
#
# Disc length: 2207 seconds
#
# Revision: 0
# Processed by: cddbd v1.5.2PL0 Copyright (c) Steve Scherf et al.
# Submitted via: ExactAudioCopyFreeDBPlugin 1.0
#
DISCID=92089d0a
DTITLE=Darren Watson - Album Mixes June 05
DYEAR=2005
DGENRE=New Zealand: Country/Blues
TTITLE0=Wrong Right Now
TTITLE1=This Fool's Advice
TTITLE2=Wrong Right Now
TTITLE3=Another Lonely Person
TTITLE4=It's Too Late
TTITLE5=Got No Soul
TTITLE6=Such Sweet Lies
TTITLE7=Sometimes a Man's Gotta...
TTITLE8=Everybody's a Friend
TTITLE9=You Don't Know Nothing...
EXTD=
EXTT0=
EXTT1=
EXTT2=
EXTT3=
EXTT4=
EXTT5=
EXTT6=
EXTT7=
EXTT8=
EXTT9=
PLAYORDER=
